<svg width="22" height="21" viewBox="0 0 22 21" fill="none" xmlns="http://www.w3.org/2000/svg">
<g id="Group 8">
<path id="Vector 19" d="M0 8.62973C0 12.7252 3.44178 15.2731 5.16267 16.0351L4.46926 18.4133C4.36091 18.7727 4.12797 19.5705 4.06296 19.8868C3.9817 20.2823 4.15505 20.3473 4.43133 20.2769C4.65236 20.2205 6.00054 19.3252 6.647 18.8846L9.04144 17.2161C9.45496 17.2613 10.4304 17.3515 11.0242 17.3515C16.8857 17.3515 22.005 13.7111 22.005 8.62973C22.005 3.54832 16.6473 0 11.0025 0C5.35769 0 0 3.5104 0 8.62973Z" fill="#3C1E1E"/>
<path id="Vector (Stroke)" fill-rule="evenodd" clip-rule="evenodd" d="M7.82029 6.35918C7.90699 6.108 8.14347 5.93945 8.40919 5.93945H8.93283C9.19856 5.93945 9.43503 6.108 9.52173 6.35918L11.0892 10.9005C11.2014 11.2257 11.0288 11.5804 10.7035 11.6926C10.3783 11.8049 10.0236 11.6322 9.91137 11.307L9.68847 10.6612H7.65355L7.43066 11.307C7.3184 11.6322 6.96374 11.8049 6.6385 11.6926C6.31326 11.5804 6.14061 11.2257 6.25286 10.9005L7.82029 6.35918ZM8.0836 9.41523L9.25843 9.41523L8.67101 7.71333L8.0836 9.41523ZM4.29022 7.32416L3.28803 7.32416C2.94396 7.32416 2.66504 7.04524 2.66504 6.70117C2.66504 6.35711 2.94396 6.07819 3.28803 6.07819L6.54923 6.07819C6.8933 6.07819 7.17222 6.35711 7.17222 6.70117C7.17222 7.04524 6.8933 7.32416 6.54923 7.32416L5.5362 7.32416V11.0783C5.5362 11.4224 5.25728 11.7013 4.91321 11.7013C4.56914 11.7013 4.29022 11.4224 4.29022 11.0783L4.29022 7.32416ZM12.0965 6.09986C12.4406 6.09986 12.7195 6.37878 12.7195 6.72284V10.412L14.1226 10.412C14.4667 10.412 14.7456 10.6909 14.7456 11.035C14.7456 11.3791 14.4667 11.658 14.1226 11.658H12.0532C11.7091 11.658 11.4735 11.3791 11.4735 11.035C11.4735 10.9542 11.4735 11 11.4735 10.8062V6.72284C11.4735 6.37878 11.7525 6.09986 12.0965 6.09986ZM15.5853 6.09986C15.9293 6.09986 16.2082 6.37878 16.2082 6.72284V8.04717L17.9189 6.3365C18.1622 6.09321 18.5567 6.09321 18.7999 6.3365C19.0432 6.57979 19.0432 6.97424 18.7999 7.21753L17.3873 8.63016L18.9209 10.6594C19.1284 10.9339 19.074 11.3246 18.7995 11.532C18.525 11.7395 18.1343 11.6851 17.9269 11.4106L16.4978 9.51968L16.2082 9.80924V11.0567C16.2082 11.4007 15.9293 11.6797 15.5853 11.6797C15.2412 11.6797 14.9623 11.4007 14.9623 11.0567V6.72284C14.9623 6.37878 15.2412 6.09986 15.5853 6.09986Z" fill="#FAE100"/>
</g>
</svg>
