<svg width="24" height="24" viewBox="0 0 24 24" fill="none" xmlns="http://www.w3.org/2000/svg">
<g id="icon_eye_open">
<path id="Icon (Stroke)" fill-rule="evenodd" clip-rule="evenodd" d="M3.47151 12.1032C3.53674 11.941 3.63015 11.7243 3.75511 11.4694C4.04911 10.8698 4.51174 10.0714 5.18321 9.2764C6.51428 7.7005 8.65384 6.14307 12 6.14307C15.3462 6.14307 17.4858 7.7005 18.8168 9.2764C19.4883 10.0714 19.9509 10.8698 20.2449 11.4694C20.3716 11.7278 20.4659 11.947 20.5312 12.1099C20.4641 12.2691 20.3679 12.4824 20.2396 12.7332C19.9393 13.3202 19.4692 14.1007 18.7931 14.8744C17.4531 16.4081 15.3164 17.9099 12.0164 17.8559C8.69481 17.8016 6.54388 16.2877 5.20108 14.778C4.52418 14.0169 4.05437 13.257 3.75489 12.6887C3.63149 12.4546 3.53796 12.2547 3.47151 12.1032ZM21.6 12.1192C22.5543 11.8203 22.554 11.8194 22.554 11.8194L22.5537 11.8182L22.5528 11.8154L22.5504 11.808L22.5431 11.7855C22.537 11.7673 22.5287 11.7425 22.518 11.7117C22.4965 11.65 22.4653 11.5639 22.4236 11.4568C22.3404 11.2429 22.2149 10.9442 22.0407 10.5889C21.6933 9.8805 21.1464 8.93491 20.3447 7.98586C18.7297 6.0737 16.0692 4.14307 12 4.14307C7.93082 4.14307 5.27039 6.0737 3.6553 7.98586C2.8537 8.93491 2.30671 9.8805 1.95936 10.5889C1.78516 10.9442 1.65967 11.2429 1.57643 11.4568C1.53478 11.5639 1.5036 11.65 1.4821 11.7117C1.47134 11.7425 1.463 11.7673 1.45697 11.7855L1.44965 11.808L1.44727 11.8154L1.44639 11.8182L1.44603 11.8194C1.44603 11.8194 1.44572 11.8203 2.40002 12.1192L1.44572 11.8203L1.34753 12.1339L1.45444 12.4446L2.40002 12.1192C1.45444 12.4446 1.45478 12.4456 1.45478 12.4456L1.45518 12.4467L1.45613 12.4494L1.45868 12.4567L1.46645 12.4784C1.47282 12.496 1.48158 12.5198 1.49284 12.5494C1.51534 12.6085 1.54784 12.6908 1.59104 12.793C1.67738 12.9973 1.80692 13.2822 1.98554 13.6212C2.34183 14.2973 2.89895 15.199 3.70666 16.1072C5.33309 17.9358 7.98217 19.7902 11.9837 19.8557C16.0067 19.9215 18.67 18.055 20.2992 16.1904C21.1078 15.265 21.6646 14.3389 22.0201 13.6441C22.1984 13.2956 22.3275 13.0023 22.4135 12.792C22.4565 12.6868 22.4888 12.6021 22.5112 12.5414C22.5223 12.5111 22.531 12.4867 22.5373 12.4687L22.5449 12.4466L22.5474 12.4392L22.5484 12.4365L22.5487 12.4353C22.5487 12.4353 22.5491 12.4344 21.6 12.1192ZM21.6 12.1192L22.5491 12.4344L22.6507 12.1282L22.5543 11.8203L21.6 12.1192ZM12 10.694C11.2009 10.694 10.6 11.3174 10.6 12.0294C10.6 12.7413 11.2009 13.3647 12 13.3647C12.7991 13.3647 13.4 12.7413 13.4 12.0294C13.4 11.3174 12.7991 10.694 12 10.694ZM8.60002 12.0294C8.60002 10.1617 10.1482 8.69402 12 8.69402C13.8519 8.69402 15.4 10.1617 15.4 12.0294C15.4 13.897 13.8519 15.3647 12 15.3647C10.1482 15.3647 8.60002 13.897 8.60002 12.0294Z" fill="#E5DCCA"/>
</g>
</svg>
