<svg width="24" height="24" viewBox="0 0 24 24" fill="none" xmlns="http://www.w3.org/2000/svg">
<path d="M5.3999 19.2C5.86107 18.6835 8.02095 16.3067 8.65391 16.3067H15.3463C16.2635 16.3067 18.1359 18.2769 18.5999 18.9714M21.5999 12C21.5999 17.302 17.3018 21.6 11.9999 21.6C6.69797 21.6 2.3999 17.302 2.3999 12C2.3999 6.69809 6.69797 2.40002 11.9999 2.40002C17.3018 2.40002 21.5999 6.69809 21.5999 12ZM15.4387 9.72798C15.4387 7.89647 13.8926 6.40002 12.0002 6.40002C10.1078 6.40002 8.56164 7.89647 8.56164 9.72798C8.56164 11.5595 10.1078 13.0559 12.0002 13.0559C13.8926 13.0559 15.4387 11.5595 15.4387 9.72798Z" stroke="#171612" stroke-width="2"/>
<path d="M5.3999 19.2C5.86107 18.6835 8.02095 16.3067 8.65391 16.3067H15.3463C16.2635 16.3067 18.1359 18.2769 18.5999 18.9714M21.5999 12C21.5999 17.302 17.3018 21.6 11.9999 21.6C6.69797 21.6 2.3999 17.302 2.3999 12C2.3999 6.69809 6.69797 2.40002 11.9999 2.40002C17.3018 2.40002 21.5999 6.69809 21.5999 12ZM15.4387 9.72798C15.4387 7.89647 13.8926 6.40002 12.0002 6.40002C10.1078 6.40002 8.56164 7.89647 8.56164 9.72798C8.56164 11.5595 10.1078 13.0559 12.0002 13.0559C13.8926 13.0559 15.4387 11.5595 15.4387 9.72798Z" stroke="black" stroke-opacity="0.2" stroke-width="2"/>
<path d="M5.3999 19.2C5.86107 18.6835 8.02095 16.3067 8.65391 16.3067H15.3463C16.2635 16.3067 18.1359 18.2769 18.5999 18.9714M21.5999 12C21.5999 17.302 17.3018 21.6 11.9999 21.6C6.69797 21.6 2.3999 17.302 2.3999 12C2.3999 6.69809 6.69797 2.40002 11.9999 2.40002C17.3018 2.40002 21.5999 6.69809 21.5999 12ZM15.4387 9.72798C15.4387 7.89647 13.8926 6.40002 12.0002 6.40002C10.1078 6.40002 8.56164 7.89647 8.56164 9.72798C8.56164 11.5595 10.1078 13.0559 12.0002 13.0559C13.8926 13.0559 15.4387 11.5595 15.4387 9.72798Z" stroke="black" stroke-opacity="0.2" stroke-width="2"/>
<path d="M5.3999 19.2C5.86107 18.6835 8.02095 16.3067 8.65391 16.3067H15.3463C16.2635 16.3067 18.1359 18.2769 18.5999 18.9714M21.5999 12C21.5999 17.302 17.3018 21.6 11.9999 21.6C6.69797 21.6 2.3999 17.302 2.3999 12C2.3999 6.69809 6.69797 2.40002 11.9999 2.40002C17.3018 2.40002 21.5999 6.69809 21.5999 12ZM15.4387 9.72798C15.4387 7.89647 13.8926 6.40002 12.0002 6.40002C10.1078 6.40002 8.56164 7.89647 8.56164 9.72798C8.56164 11.5595 10.1078 13.0559 12.0002 13.0559C13.8926 13.0559 15.4387 11.5595 15.4387 9.72798Z" stroke="black" stroke-opacity="0.2" stroke-width="2"/>
<path d="M5.3999 19.2C5.86107 18.6835 8.02095 16.3067 8.65391 16.3067H15.3463C16.2635 16.3067 18.1359 18.2769 18.5999 18.9714M21.5999 12C21.5999 17.302 17.3018 21.6 11.9999 21.6C6.69797 21.6 2.3999 17.302 2.3999 12C2.3999 6.69809 6.69797 2.40002 11.9999 2.40002C17.3018 2.40002 21.5999 6.69809 21.5999 12ZM15.4387 9.72798C15.4387 7.89647 13.8926 6.40002 12.0002 6.40002C10.1078 6.40002 8.56164 7.89647 8.56164 9.72798C8.56164 11.5595 10.1078 13.0559 12.0002 13.0559C13.8926 13.0559 15.4387 11.5595 15.4387 9.72798Z" stroke="black" stroke-opacity="0.2" stroke-width="2"/>
</svg>
