<svg width="24" height="24" viewBox="0 0 24 24" fill="none" xmlns="http://www.w3.org/2000/svg">
<path d="M14.3001 16.5V18C14.3001 19.3255 13.2256 20.4 11.9001 20.4L5.40004 20.4C4.07456 20.4 3.00005 19.3255 3.00004 18L3 5.80002C3.00001 4.47455 4.07452 3.40004 5.4 3.40004L11.9001 3.40002C13.2256 3.40002 14.3001 4.47454 14.3001 5.80002V7.5M7.90015 12H20.9001M20.9001 12L18.4001 9M20.9001 12L18.4001 15" stroke="#171612" stroke-width="2" stroke-linecap="round" stroke-linejoin="round"/>
<path d="M14.3001 16.5V18C14.3001 19.3255 13.2256 20.4 11.9001 20.4L5.40004 20.4C4.07456 20.4 3.00005 19.3255 3.00004 18L3 5.80002C3.00001 4.47455 4.07452 3.40004 5.4 3.40004L11.9001 3.40002C13.2256 3.40002 14.3001 4.47454 14.3001 5.80002V7.5M7.90015 12H20.9001M20.9001 12L18.4001 9M20.9001 12L18.4001 15" stroke="black" stroke-opacity="0.2" stroke-width="2" stroke-linecap="round" stroke-linejoin="round"/>
<path d="M14.3001 16.5V18C14.3001 19.3255 13.2256 20.4 11.9001 20.4L5.40004 20.4C4.07456 20.4 3.00005 19.3255 3.00004 18L3 5.80002C3.00001 4.47455 4.07452 3.40004 5.4 3.40004L11.9001 3.40002C13.2256 3.40002 14.3001 4.47454 14.3001 5.80002V7.5M7.90015 12H20.9001M20.9001 12L18.4001 9M20.9001 12L18.4001 15" stroke="black" stroke-opacity="0.2" stroke-width="2" stroke-linecap="round" stroke-linejoin="round"/>
<path d="M14.3001 16.5V18C14.3001 19.3255 13.2256 20.4 11.9001 20.4L5.40004 20.4C4.07456 20.4 3.00005 19.3255 3.00004 18L3 5.80002C3.00001 4.47455 4.07452 3.40004 5.4 3.40004L11.9001 3.40002C13.2256 3.40002 14.3001 4.47454 14.3001 5.80002V7.5M7.90015 12H20.9001M20.9001 12L18.4001 9M20.9001 12L18.4001 15" stroke="black" stroke-opacity="0.2" stroke-width="2" stroke-linecap="round" stroke-linejoin="round"/>
<path d="M14.3001 16.5V18C14.3001 19.3255 13.2256 20.4 11.9001 20.4L5.40004 20.4C4.07456 20.4 3.00005 19.3255 3.00004 18L3 5.80002C3.00001 4.47455 4.07452 3.40004 5.4 3.40004L11.9001 3.40002C13.2256 3.40002 14.3001 4.47454 14.3001 5.80002V7.5M7.90015 12H20.9001M20.9001 12L18.4001 9M20.9001 12L18.4001 15" stroke="black" stroke-opacity="0.2" stroke-width="2" stroke-linecap="round" stroke-linejoin="round"/>
</svg>
