<svg width="183" height="118" viewBox="0 0 183 118" fill="none" xmlns="http://www.w3.org/2000/svg">
<g id="Vector">
<path d="M39.646 41.7036H48.1481V50.2222H39.646V67.6296H29.85V50.2222H0.924149L0 41.7036L30.3121 0.222168H39.646V41.7036ZM29.85 41.7036V16.6111L11.6443 41.7036H29.85Z" fill="#E5DCCA"/>
<path d="M170.757 41.7036H179.259V50.2222H170.757V67.6296H160.961V50.2222H132.035L131.111 41.7036L161.423 0.222168H170.757V41.7036ZM160.961 41.7036V16.6111L142.756 41.7036H160.961Z" fill="#E5DCCA"/>
<path d="M27.1879 84.523H7.99335V93.6292H24.4008V100.472H7.99335V110.736H27.1879V117.579H0V77.6803H27.1879V84.523Z" fill="#E5DCCA"/>
<path d="M49.5267 97.6822C51.4198 97.6822 52.9098 97.1207 53.9966 95.9978C55.0834 94.8749 55.6269 93.2432 55.6269 91.1026C55.6269 88.9621 55.0834 87.3303 53.9966 86.2074C52.9098 85.0845 51.4198 84.523 49.5267 84.523H41.954V97.6822H49.5267ZM55.9424 117.579L47.3706 104.525H41.954V117.579H33.9607V77.6803H51.2621C53.6811 77.6803 55.8197 78.2242 57.6778 79.312C59.5359 80.3647 60.9908 81.8912 62.0426 83.8914C63.0943 85.8565 63.6202 88.155 63.6202 90.7868C63.6202 93.4186 63.0768 95.7171 61.99 97.6822C60.9382 99.6473 58.9399 101.454 55.995 103.104L65.5134 117.579H55.9424Z" fill="#E5DCCA"/>
<path d="M86.862 97.6822C88.7551 97.6822 90.2451 97.1207 91.3319 95.9978C92.4188 94.8749 92.9622 93.2432 92.9622 91.1026C92.9622 88.9621 92.4188 87.3303 91.3319 86.2074C90.2451 85.0845 88.7551 84.523 86.862 84.523H79.2893V97.6822H86.862ZM93.2777 117.579L84.7059 104.525H79.2893V117.579H71.296V77.6803H88.5974C91.0164 77.6803 93.155 78.2242 95.0131 79.312C96.8712 80.3647 98.3261 81.8912 99.3779 83.8914C100.43 85.8565 100.956 88.155 100.956 90.7868C100.956 93.4186 100.412 95.7171 99.3253 97.6822C98.2736 99.6473 96.2752 101.454 93.3303 103.104L102.849 117.579H93.2777Z" fill="#E5DCCA"/>
<path d="M125.273 111.052C129.024 111.052 131.987 109.859 134.16 107.473C136.369 105.051 137.473 101.77 137.473 97.6296C137.473 93.4888 136.369 90.2253 134.16 87.8391C131.987 85.4179 129.024 84.2072 125.273 84.2072C121.522 84.2072 118.542 85.4179 116.333 87.8391C114.159 90.2253 113.073 93.4888 113.073 97.6296C113.073 101.77 114.159 105.051 116.333 107.473C118.542 109.859 121.522 111.052 125.273 111.052ZM125.273 77.2592C129.164 77.2592 132.635 78.1365 135.685 79.891C138.77 81.6105 141.172 84.0142 142.89 87.1022C144.608 90.1902 145.467 93.6994 145.467 97.6296C145.467 101.56 144.608 105.069 142.89 108.157C141.172 111.245 138.77 113.666 135.685 115.421C132.635 117.14 129.164 118 125.273 118C121.381 118 117.893 117.14 114.808 115.421C111.758 113.666 109.374 111.245 107.656 108.157C105.938 105.069 105.079 101.56 105.079 97.6296C105.079 93.6994 105.938 90.1902 107.656 87.1022C109.374 84.0142 111.758 81.6105 114.808 79.891C117.893 78.1365 121.381 77.2592 125.273 77.2592Z" fill="#E5DCCA"/>
<path d="M166.976 97.6822C168.869 97.6822 170.359 97.1207 171.446 95.9978C172.533 94.8749 173.076 93.2432 173.076 91.1026C173.076 88.9621 172.533 87.3303 171.446 86.2074C170.359 85.0845 168.869 84.523 166.976 84.523H159.404V97.6822H166.976ZM173.392 117.579L164.82 104.525H159.404V117.579H151.41V77.6803H168.712C171.131 77.6803 173.269 78.2242 175.127 79.312C176.986 80.3647 178.44 81.8912 179.492 83.8914C180.544 85.8565 181.07 88.155 181.07 90.7868C181.07 93.4186 180.526 95.7171 179.44 97.6822C178.388 99.6473 176.389 101.454 173.445 103.104L182.963 117.579H173.392Z" fill="#E5DCCA"/>
</g>
</svg>
