<svg width="80" height="80" viewBox="0 0 80 80" fill="none" xmlns="http://www.w3.org/2000/svg">
<path fill-rule="evenodd" clip-rule="evenodd" d="M20 8.50372C20 7.13264 18.3882 6.39665 17.3521 7.29462L6.39511 16.7908C5.65897 17.4288 5.65897 18.571 6.39512 19.209L17.3521 28.7049C18.3882 29.6029 20 28.8669 20 27.4958V23.5999C20 22.7162 20.7163 21.9999 21.6 21.9999L59.4 21.9999C60.2837 21.9999 61 21.2835 61 20.3999V15.5999C61 14.7162 60.2837 13.9999 59.4 13.9999L21.6 13.9999C20.7163 13.9999 20 13.2835 20 12.3999V8.50372Z" fill="url(#paint0_linear_819_7588)"/>
<path d="M50.2573 71.8831C45.4908 70.0393 36.4874 64.8645 34.3973 60.5281C32.177 55.9217 30.3035 52.6092 29.4365 49.3738C28.5696 46.1384 32.4757 42.3176 36.2757 45.4606L40.7163 54.6739L33.1745 26.5272C31.8742 21.6746 40.1534 19.456 41.4537 24.3088L45.3545 38.8667M46.3948 42.7492L45.3545 38.8667M45.3545 38.8667C44.3142 34.9842 51.9336 33.9829 52.9739 37.8654M52.9739 37.8654L53.7542 40.7773M52.9739 37.8654C51.9336 33.9829 59.8135 33.9537 60.8538 37.8362M60.8538 37.8362L61.6336 40.7466M60.8538 37.8362C59.8135 33.9537 67.0332 35.1404 68.0735 39.0226C69.3391 43.7461 68.4572 40.4547 69.3735 43.8743C70.6739 48.7274 73.1984 57.4133 68.6557 66.9532" stroke="#E5DCCA" stroke-width="3" stroke-linecap="round" stroke-linejoin="round"/>
<defs>
<linearGradient id="paint0_linear_819_7588" x1="60" y1="17.9998" x2="4" y2="17.9998" gradientUnits="userSpaceOnUse">
<stop stop-color="#FF7F00" stop-opacity="0"/>
<stop offset="1" stop-color="#FF7F00"/>
</linearGradient>
</defs>
</svg>
