<svg width="80" height="80" viewBox="0 0 80 80" fill="none" xmlns="http://www.w3.org/2000/svg">
<path fill-rule="evenodd" clip-rule="evenodd" d="M56 8.50372C56 7.13264 57.6118 6.39665 58.6479 7.29462L69.6049 16.7908C70.341 17.4288 70.341 18.571 69.6049 19.209L58.6479 28.7049C57.6118 29.6029 56 28.8669 56 27.4958V23.5999C56 22.7162 55.2837 21.9999 54.4 21.9999L16.6 21.9999C15.7163 21.9999 15 21.2835 15 20.3999V15.5999C15 14.7162 15.7163 13.9999 16.6 13.9999L54.4 13.9999C55.2837 13.9999 56 13.2835 56 12.3999V8.50372Z" fill="url(#paint0_linear_819_7591)"/>
<path d="M22.7987 68.9253C19.5926 64.9453 14.3828 55.9621 14.7409 51.1615C15.1213 46.0621 15.155 42.2567 16.022 39.0213C16.8889 35.7859 22.182 34.43 23.9014 39.0519L23.1405 49.2512L30.6824 21.1045C31.9826 16.2518 40.2619 18.4701 38.9616 23.3229L35.0608 37.8808M34.0205 41.7633L35.0608 37.8808M35.0608 37.8808C36.1012 33.9984 43.2004 36.9409 42.1601 40.8234M42.1601 40.8234L41.3799 43.7353M42.1601 40.8234C43.2004 36.9409 50.0392 40.8555 48.9989 44.738M48.9989 44.738L48.2191 47.6485M48.9989 44.738C50.0392 40.8555 55.6983 45.4931 54.6581 49.3753C53.3924 54.0988 54.2744 50.8074 53.3581 54.227C52.0577 59.0801 49.9011 67.8646 41.197 73.8551" stroke="#E5DCCA" stroke-width="3" stroke-linecap="round" stroke-linejoin="round"/>
<defs>
<linearGradient id="paint0_linear_819_7591" x1="16" y1="17.9998" x2="72" y2="17.9998" gradientUnits="userSpaceOnUse">
<stop stop-color="#FF7F00" stop-opacity="0"/>
<stop offset="1" stop-color="#FF7F00"/>
</linearGradient>
</defs>
</svg>
