<svg width="216" height="120" viewBox="0 0 216 120" fill="none" xmlns="http://www.w3.org/2000/svg">
<path d="M70.664 1C17.8918 2.45007 1 31.4514 1 86.5538V106.24L5.68687 106.855M70.664 1H89.1311V4.29685M70.664 1C11.1586 6.47194 5.68687 51.4924 5.68687 87.744V106.855M5.68687 106.855L13.2105 104.68M89.1311 4.29685H187.323M89.1311 4.29685C69.2655 4.29685 54.1588 7.65155 42.8623 14.1765M13.2105 104.68V87.744M13.2105 104.68L128.79 114.105M13.2105 87.744C13.2105 47.4021 20.7103 26.9717 42.8623 14.1765M13.2105 87.744L128.797 95.2542M13.2105 87.744L17.1574 86.5538M205.171 3.1751H215V102.505L135.4 119M205.171 3.1751C141.275 6.80026 135.4 55.3774 135.4 97.4293V119M205.171 3.1751C198.739 3.1751 192.8 3.5487 187.323 4.29685M135.4 119L128.79 118.455V114.105M128.79 114.105V97.4293C128.79 96.7 128.793 95.975 128.797 95.2542M187.323 4.29685C175.664 5.88954 166.098 9.17971 158.329 14.1765M42.8623 14.1765H158.329M42.8623 14.1765L44.3312 16.9507M158.329 14.1765C156.318 15.4702 155.536 16.1532 153.761 17.6757M44.3312 16.9507L153.761 17.6757M44.3312 16.9507C37.7475 20.3916 32.7465 25.143 28.9512 30.7263M153.761 17.6757C148.819 21.913 144.676 27.0985 141.275 33.2003M128.797 95.2542C128.8 94.7689 128.805 94.2856 128.81 93.8042M17.1574 86.5538C17.1574 68.4022 18.352 46.3195 28.9512 30.7263M17.1574 86.5538L51.6754 88.7953M128.81 93.8042L51.6754 88.7953M128.81 93.8042C128.846 90.5813 128.94 87.4392 129.094 84.3787M28.9512 30.7263L141.275 33.2003M28.9512 30.7263L30.3771 32.1764L89.1311 33.3353M141.275 33.2003C141.064 33.5805 140.855 33.9642 140.648 34.3515M140.648 34.3515L89.1311 33.3353M140.648 34.3515C133.804 47.2099 130.12 63.9805 129.094 84.3787M89.1311 33.3353V82.2036M89.1311 82.2036L51.6754 88.7953M89.1311 82.2036L129.094 84.3787M75.9394 28.7813L94.312 29.0947C94.7793 28.1172 95.0066 27.1012 96.4481 26.1459C96.4481 26.1459 91.0525 25.7834 78.0755 25.8325C77.3468 26.0906 75.8994 27.0417 75.9394 28.7813Z" stroke="#E5DCCA" stroke-width="2" stroke-linejoin="round"/>
<path d="M97.7014 89.6527L97.7014 72.2487C97.9012 71.3979 98.5134 69.4977 99.3631 68.7029C100.425 67.7095 96.3689 66.0319 98.0306 62.4862C99.6923 58.9404 103.395 56.9258 108.5 58.1251L112 60C113 58.1251 113.969 55.3669 120.122 55.9838M120.122 55.9838C127.813 56.755 123.756 62.315 122.693 63.3083C121.631 64.3016 124.766 62.863 125.126 67.5051C125.413 71.2188 124.834 83.3271 124.508 87.9464L110.115 90.6699M120.122 55.9838L96.3816 54.7861C90.2287 54.1691 87.9862 56.6006 87.4209 58.1251L84.92 55.9838C79.8155 54.7845 75.9518 57.7427 74.2901 61.2884C72.6284 64.8341 76.6846 66.5117 75.6225 67.5052C74.7729 68.2999 74.1607 70.2002 73.9608 71.0509L73.9608 87.9464" stroke="#974B00" stroke-width="2" stroke-linecap="round" stroke-linejoin="round" stroke-dasharray="6 4"/>
</svg>
