<svg width="24" height="24" viewBox="0 0 24 24" fill="none" xmlns="http://www.w3.org/2000/svg">
<path d="M14.3001 16.5001V18.0001C14.3001 19.3256 13.2256 20.4001 11.9001 20.4001L5.40004 20.4001C4.07456 20.4001 3.00005 19.3256 3.00004 18.0001L3 5.80015C3.00001 4.47467 4.07452 3.40016 5.4 3.40016L11.9001 3.40015C13.2256 3.40015 14.3001 4.47466 14.3001 5.80015V7.50012M7.90015 12.0001H20.9001M20.9001 12.0001L18.4001 9.00012M20.9001 12.0001L18.4001 15.0001" stroke="#171612" stroke-width="2" stroke-linecap="round" stroke-linejoin="round"/>
<path d="M14.3001 16.5001V18.0001C14.3001 19.3256 13.2256 20.4001 11.9001 20.4001L5.40004 20.4001C4.07456 20.4001 3.00005 19.3256 3.00004 18.0001L3 5.80015C3.00001 4.47467 4.07452 3.40016 5.4 3.40016L11.9001 3.40015C13.2256 3.40015 14.3001 4.47466 14.3001 5.80015V7.50012M7.90015 12.0001H20.9001M20.9001 12.0001L18.4001 9.00012M20.9001 12.0001L18.4001 15.0001" stroke="black" stroke-opacity="0.2" stroke-width="2" stroke-linecap="round" stroke-linejoin="round"/>
<path d="M14.3001 16.5001V18.0001C14.3001 19.3256 13.2256 20.4001 11.9001 20.4001L5.40004 20.4001C4.07456 20.4001 3.00005 19.3256 3.00004 18.0001L3 5.80015C3.00001 4.47467 4.07452 3.40016 5.4 3.40016L11.9001 3.40015C13.2256 3.40015 14.3001 4.47466 14.3001 5.80015V7.50012M7.90015 12.0001H20.9001M20.9001 12.0001L18.4001 9.00012M20.9001 12.0001L18.4001 15.0001" stroke="black" stroke-opacity="0.2" stroke-width="2" stroke-linecap="round" stroke-linejoin="round"/>
<path d="M14.3001 16.5001V18.0001C14.3001 19.3256 13.2256 20.4001 11.9001 20.4001L5.40004 20.4001C4.07456 20.4001 3.00005 19.3256 3.00004 18.0001L3 5.80015C3.00001 4.47467 4.07452 3.40016 5.4 3.40016L11.9001 3.40015C13.2256 3.40015 14.3001 4.47466 14.3001 5.80015V7.50012M7.90015 12.0001H20.9001M20.9001 12.0001L18.4001 9.00012M20.9001 12.0001L18.4001 15.0001" stroke="black" stroke-opacity="0.2" stroke-width="2" stroke-linecap="round" stroke-linejoin="round"/>
<path d="M14.3001 16.5001V18.0001C14.3001 19.3256 13.2256 20.4001 11.9001 20.4001L5.40004 20.4001C4.07456 20.4001 3.00005 19.3256 3.00004 18.0001L3 5.80015C3.00001 4.47467 4.07452 3.40016 5.4 3.40016L11.9001 3.40015C13.2256 3.40015 14.3001 4.47466 14.3001 5.80015V7.50012M7.90015 12.0001H20.9001M20.9001 12.0001L18.4001 9.00012M20.9001 12.0001L18.4001 15.0001" stroke="black" stroke-opacity="0.2" stroke-width="2" stroke-linecap="round" stroke-linejoin="round"/>
</svg>
