<svg width="40" height="40" viewBox="0 0 40 40" fill="none" xmlns="http://www.w3.org/2000/svg">
<path d="M0 20C0 8.95431 8.95431 0 20 0C31.0457 0 40 8.95431 40 20C40 31.0457 31.0457 40 20 40C8.95431 40 0 31.0457 0 20Z" fill="#171612" fill-opacity="0.4"/>
<path fill-rule="evenodd" clip-rule="evenodd" d="M23.325 12.9071C23.7153 12.5165 24.3483 12.5163 24.739 12.9065L27.0924 15.2573C27.4832 15.6476 27.4835 16.281 27.093 16.6717L17.1352 26.635C16.9959 26.7743 16.8186 26.8694 16.6254 26.9083L12.2002 27.8L13.0934 23.38C13.1324 23.1873 13.2273 23.0103 13.3663 22.8712L23.325 12.9071Z" stroke="#E5DCCA" stroke-width="2" stroke-linejoin="round"/>
</svg>
