<svg width="18" height="22" viewBox="0 0 18 22" fill="none" xmlns="http://www.w3.org/2000/svg">
<path d="M3.5998 8.05591V6.86131C3.5998 3.83586 6.00838 1.3999 8.99981 1.3999C11.9912 1.3999 14.3998 3.83586 14.3998 6.86131V8.65325M8.99981 14.6854V12.2854M16.1998 13.432C16.1998 17.3908 12.9763 20.6001 8.99981 20.6001C5.02335 20.6001 1.7998 17.3908 1.7998 13.432C1.7998 9.47315 5.02335 6.26388 8.99981 6.26388C12.9763 6.26388 16.1998 9.47315 16.1998 13.432Z" stroke="#171612" stroke-width="2" stroke-linecap="round"/>
<path d="M3.5998 8.05591V6.86131C3.5998 3.83586 6.00838 1.3999 8.99981 1.3999C11.9912 1.3999 14.3998 3.83586 14.3998 6.86131V8.65325M8.99981 14.6854V12.2854M16.1998 13.432C16.1998 17.3908 12.9763 20.6001 8.99981 20.6001C5.02335 20.6001 1.7998 17.3908 1.7998 13.432C1.7998 9.47315 5.02335 6.26388 8.99981 6.26388C12.9763 6.26388 16.1998 9.47315 16.1998 13.432Z" stroke="black" stroke-opacity="0.2" stroke-width="2" stroke-linecap="round"/>
<path d="M3.5998 8.05591V6.86131C3.5998 3.83586 6.00838 1.3999 8.99981 1.3999C11.9912 1.3999 14.3998 3.83586 14.3998 6.86131V8.65325M8.99981 14.6854V12.2854M16.1998 13.432C16.1998 17.3908 12.9763 20.6001 8.99981 20.6001C5.02335 20.6001 1.7998 17.3908 1.7998 13.432C1.7998 9.47315 5.02335 6.26388 8.99981 6.26388C12.9763 6.26388 16.1998 9.47315 16.1998 13.432Z" stroke="black" stroke-opacity="0.2" stroke-width="2" stroke-linecap="round"/>
<path d="M3.5998 8.05591V6.86131C3.5998 3.83586 6.00838 1.3999 8.99981 1.3999C11.9912 1.3999 14.3998 3.83586 14.3998 6.86131V8.65325M8.99981 14.6854V12.2854M16.1998 13.432C16.1998 17.3908 12.9763 20.6001 8.99981 20.6001C5.02335 20.6001 1.7998 17.3908 1.7998 13.432C1.7998 9.47315 5.02335 6.26388 8.99981 6.26388C12.9763 6.26388 16.1998 9.47315 16.1998 13.432Z" stroke="black" stroke-opacity="0.2" stroke-width="2" stroke-linecap="round"/>
<path d="M3.5998 8.05591V6.86131C3.5998 3.83586 6.00838 1.3999 8.99981 1.3999C11.9912 1.3999 14.3998 3.83586 14.3998 6.86131V8.65325M8.99981 14.6854V12.2854M16.1998 13.432C16.1998 17.3908 12.9763 20.6001 8.99981 20.6001C5.02335 20.6001 1.7998 17.3908 1.7998 13.432C1.7998 9.47315 5.02335 6.26388 8.99981 6.26388C12.9763 6.26388 16.1998 9.47315 16.1998 13.432Z" stroke="black" stroke-opacity="0.2" stroke-width="2" stroke-linecap="round"/>
</svg>
