<svg width="284" height="284" viewBox="0 0 284 284" fill="none" xmlns="http://www.w3.org/2000/svg">
<g filter="url(#filter0_i_3_15)">
<path d="M43 43.0051C69.2551 16.75 104.865 2.00001 141.995 2C179.125 1.99999 214.735 16.7499 240.99 43.005L165.754 118.241C159.453 111.94 150.906 108.4 141.995 108.4C133.084 108.4 124.537 111.94 118.236 118.241L43 43.0051Z" fill="black"/>
</g>
<g filter="url(#filter1_i_3_15)">
<path d="M240.995 43C267.25 69.2551 282 104.865 282 141.995C282 179.125 267.25 214.735 240.995 240.99L165.759 165.754C172.06 159.453 175.6 150.906 175.6 141.995C175.6 133.084 172.06 124.537 165.759 118.236L240.995 43Z" fill="black"/>
</g>
<g filter="url(#filter2_i_3_15)">
<path d="M241 240.995C214.745 267.25 179.135 282 142.005 282C104.875 282 69.2653 267.25 43.0102 240.995L118.246 165.759C124.548 172.06 133.094 175.6 142.005 175.6C150.916 175.6 159.463 172.06 165.764 165.759L241 240.995Z" fill="black"/>
</g>
<g filter="url(#filter3_i_3_15)">
<path d="M43.0051 241C16.75 214.745 2.00002 179.135 2.00001 142.005C2.00001 104.875 16.7499 69.2653 43.005 43.0102L118.241 118.246C111.94 124.548 108.4 133.094 108.4 142.005C108.4 150.916 111.94 159.463 118.241 165.764L43.0051 241Z" fill="black"/>
</g>
<defs>
<filter id="filter0_i_3_15" x="43" y="2" width="197.99" height="116.241" filterUnits="userSpaceOnUse" color-interpolation-filters="sRGB">
<feFlood flood-opacity="0" result="BackgroundImageFix"/>
<feBlend mode="normal" in="SourceGraphic" in2="BackgroundImageFix" result="shape"/>
<feColorMatrix in="SourceAlpha" type="matrix" values="0 0 0 0 0 0 0 0 0 0 0 0 0 0 0 0 0 0 127 0" result="hardAlpha"/>
<feOffset/>
<feGaussianBlur stdDeviation="10"/>
<feComposite in2="hardAlpha" operator="arithmetic" k2="-1" k3="1"/>
<feColorMatrix type="matrix" values="0 0 0 0 1 0 0 0 0 1 0 0 0 0 1 0 0 0 0.4 0"/>
<feBlend mode="normal" in2="shape" result="effect1_innerShadow_3_15"/>
</filter>
<filter id="filter1_i_3_15" x="165.759" y="43" width="116.241" height="197.99" filterUnits="userSpaceOnUse" color-interpolation-filters="sRGB">
<feFlood flood-opacity="0" result="BackgroundImageFix"/>
<feBlend mode="normal" in="SourceGraphic" in2="BackgroundImageFix" result="shape"/>
<feColorMatrix in="SourceAlpha" type="matrix" values="0 0 0 0 0 0 0 0 0 0 0 0 0 0 0 0 0 0 127 0" result="hardAlpha"/>
<feOffset/>
<feGaussianBlur stdDeviation="10"/>
<feComposite in2="hardAlpha" operator="arithmetic" k2="-1" k3="1"/>
<feColorMatrix type="matrix" values="0 0 0 0 1 0 0 0 0 1 0 0 0 0 1 0 0 0 0.4 0"/>
<feBlend mode="normal" in2="shape" result="effect1_innerShadow_3_15"/>
</filter>
<filter id="filter2_i_3_15" x="43.0102" y="165.759" width="197.99" height="116.241" filterUnits="userSpaceOnUse" color-interpolation-filters="sRGB">
<feFlood flood-opacity="0" result="BackgroundImageFix"/>
<feBlend mode="normal" in="SourceGraphic" in2="BackgroundImageFix" result="shape"/>
<feColorMatrix in="SourceAlpha" type="matrix" values="0 0 0 0 0 0 0 0 0 0 0 0 0 0 0 0 0 0 127 0" result="hardAlpha"/>
<feOffset/>
<feGaussianBlur stdDeviation="10"/>
<feComposite in2="hardAlpha" operator="arithmetic" k2="-1" k3="1"/>
<feColorMatrix type="matrix" values="0 0 0 0 1 0 0 0 0 1 0 0 0 0 1 0 0 0 0.4 0"/>
<feBlend mode="normal" in2="shape" result="effect1_innerShadow_3_15"/>
</filter>
<filter id="filter3_i_3_15" x="2.00002" y="43.0102" width="116.241" height="197.99" filterUnits="userSpaceOnUse" color-interpolation-filters="sRGB">
<feFlood flood-opacity="0" result="BackgroundImageFix"/>
<feBlend mode="normal" in="SourceGraphic" in2="BackgroundImageFix" result="shape"/>
<feColorMatrix in="SourceAlpha" type="matrix" values="0 0 0 0 0 0 0 0 0 0 0 0 0 0 0 0 0 0 127 0" result="hardAlpha"/>
<feOffset/>
<feGaussianBlur stdDeviation="10"/>
<feComposite in2="hardAlpha" operator="arithmetic" k2="-1" k3="1"/>
<feColorMatrix type="matrix" values="0 0 0 0 1 0 0 0 0 1 0 0 0 0 1 0 0 0 0.4 0"/>
<feBlend mode="normal" in2="shape" result="effect1_innerShadow_3_15"/>
</filter>
</defs>
</svg>
