<svg width="284" height="284" viewBox="0 0 284 284" fill="none" xmlns="http://www.w3.org/2000/svg">
<path d="M43 43.0051C69.2551 16.75 104.865 2.00001 141.995 2C179.125 1.99999 214.735 16.7499 240.99 43.005L165.754 118.241C159.453 111.94 150.906 108.4 141.995 108.4C133.084 108.4 124.537 111.94 118.236 118.241L43 43.0051Z" fill="url(#paint0_linear_6_27)"/>
<path d="M240.995 43C267.25 69.2551 282 104.865 282 141.995C282 179.125 267.25 214.735 240.995 240.99L165.759 165.754C172.06 159.453 175.6 150.906 175.6 141.995C175.6 133.084 172.06 124.537 165.759 118.236L240.995 43Z" fill="url(#paint1_linear_6_27)"/>
<path d="M241 240.995C214.745 267.25 179.135 282 142.005 282C104.875 282 69.2653 267.25 43.0102 240.995L118.246 165.759C124.548 172.06 133.094 175.6 142.005 175.6C150.916 175.6 159.463 172.06 165.764 165.759L241 240.995Z" fill="url(#paint2_linear_6_27)"/>
<path d="M43.0051 241C16.75 214.745 2.00002 179.135 2.00001 142.005C2.00001 104.875 16.7499 69.2653 43.005 43.0102L118.241 118.246C111.94 124.548 108.4 133.094 108.4 142.005C108.4 150.916 111.94 159.463 118.241 165.764L43.0051 241Z" fill="url(#paint3_linear_6_27)"/>
<defs>
<linearGradient id="paint0_linear_6_27" x1="141.995" y1="2" x2="141.995" y2="118.241" gradientUnits="userSpaceOnUse">
<stop stop-opacity="0"/>
<stop offset="1"/>
</linearGradient>
<linearGradient id="paint1_linear_6_27" x1="282" y1="141.995" x2="165.759" y2="141.995" gradientUnits="userSpaceOnUse">
<stop stop-opacity="0"/>
<stop offset="1"/>
</linearGradient>
<linearGradient id="paint2_linear_6_27" x1="142.005" y1="282" x2="142.005" y2="165.759" gradientUnits="userSpaceOnUse">
<stop stop-opacity="0"/>
<stop offset="1"/>
</linearGradient>
<linearGradient id="paint3_linear_6_27" x1="2.00001" y1="142.005" x2="118.241" y2="142.005" gradientUnits="userSpaceOnUse">
<stop stop-opacity="0"/>
<stop offset="1"/>
</linearGradient>
</defs>
</svg>
