<svg width="32" height="32" viewBox="0 0 32 32" fill="none" xmlns="http://www.w3.org/2000/svg">
<g clip-path="url(#clip0_1591_8482)">
<path d="M2.97473 14.8V27.6H26.6254V14.8C26.6255 13.264 26.2313 12.4533 25.4429 12.24C28.9903 12.24 28.3994 2 21.8953 2H19.5301C17.9534 2 14.8001 3.28 14.8001 5.84C14.8001 3.28 11.6467 2 10.07 2H7.70485C1.20077 2 0.609852 12.24 4.15726 12.24C3.36887 12.4533 2.97463 13.264 2.97473 14.8Z" fill="#FBE5B9"/>
<path fill-rule="evenodd" clip-rule="evenodd" d="M4.17465 32C2.40733 32 0.974633 30.5673 0.974633 28.8V16.0002C0.974604 15.4454 1.01163 14.8418 1.13248 14.2347C0.848529 13.79 0.635299 13.3336 0.485677 12.9134C-0.0944586 11.2842 -0.120077 9.39407 0.225046 7.68617C0.898837 4.35182 3.50008 0 8.90477 0H11.2699C12.729 0 14.5104 0.528862 15.9692 1.47632C15.9795 1.48298 15.9898 1.48968 16 1.49643C16.0103 1.48969 16.0206 1.483 16.0308 1.47634C17.4896 0.52887 19.271 0 20.7301 0H23.0952C28.4999 0 31.1012 4.35182 31.775 7.68617C32.1201 9.39407 32.0945 11.2841 31.5143 12.9134C31.3647 13.3336 31.1515 13.79 30.8675 14.2347C30.9884 14.8418 31.0254 15.4452 31.0254 16V28.8C31.0254 30.5673 29.5927 32 27.8253 32H4.17465ZM26.5543 14.8C26.5544 13.264 26.1601 12.4533 25.3717 12.24C26.5239 12.24 27.2396 11.1597 27.4578 9.70088C27.9114 6.6683 26.2157 2 21.8241 2H19.459C18.8106 2 17.8956 2.21646 17.0429 2.64938C15.8221 3.26921 14.729 4.33275 14.729 5.84C14.729 4.33277 13.6359 3.26924 12.415 2.64941C11.5623 2.21647 10.6473 2 9.99885 2H7.63367C3.24214 2 1.54636 6.66831 2.00001 9.70088C2.21824 11.1597 2.93387 12.24 4.08608 12.24C3.29769 12.4533 2.90345 13.264 2.90355 14.8V27.6H26.5543V14.8Z" fill="#974B00"/>
</g>
<defs>
<clipPath id="clip0_1591_8482">
<rect width="32" height="32" fill="white"/>
</clipPath>
</defs>
</svg>
