<svg width="64" height="64" viewBox="0 0 64 64" fill="none" xmlns="http://www.w3.org/2000/svg">
<path d="M12.4621 30.2V49.4H47.9382V30.2C47.9383 27.896 47.347 26.68 46.1644 26.36C51.4855 26.36 50.5991 11 40.843 11H37.2952C34.9301 11 30.2002 12.92 30.2002 16.76C30.2002 12.92 25.4701 11 23.105 11H19.5573C9.80115 11 8.91478 26.36 14.2359 26.36C13.0533 26.68 12.4619 27.896 12.4621 30.2Z" fill="#FBE5B9"/>
<path fill-rule="evenodd" clip-rule="evenodd" d="M14.262 56C11.611 56 9.46195 53.851 9.46195 51.2V32.0003C9.46191 31.1681 9.51744 30.2627 9.69872 29.352C9.27279 28.685 8.95295 28.0004 8.72852 27.3701C7.85831 24.9262 7.81988 22.0911 8.33757 19.5293C9.34826 14.5277 13.2501 8 21.3572 8H24.9049C27.0936 8 29.7656 8.79329 31.9538 10.2145C31.9692 10.2245 31.9846 10.2345 32.0001 10.2446C32.0155 10.2345 32.0308 10.2245 32.0462 10.2145C34.2344 8.7933 36.9064 8 39.0951 8H42.6428C50.7499 8 54.6517 14.5277 55.6624 19.5293C56.1801 22.0911 56.1417 24.9262 55.2715 27.3701C55.0471 28.0004 54.7272 28.685 54.3013 29.352C54.4826 30.2628 54.5381 31.1678 54.5381 32V51.2C54.5381 53.851 52.389 56 49.738 56H14.262ZM47.8314 30.2C47.8315 27.896 47.2402 26.68 46.0576 26.36C47.7859 26.36 48.8594 24.7395 49.1867 22.5513C49.8672 18.0025 47.3235 11 40.7362 11H37.1884C36.2159 11 34.8434 11.3247 33.5643 11.9741C31.7331 12.9038 30.0935 14.4991 30.0935 16.76C30.0935 14.4992 28.4538 12.9039 26.6225 11.9741C25.3434 11.3247 23.9709 11 22.9983 11H19.4505C12.8632 11 10.3195 18.0025 11 22.5513C11.3274 24.7396 12.4008 26.36 14.1291 26.36C12.9465 26.68 12.3552 27.896 12.3553 30.2V49.4H47.8314V30.2Z" fill="#974B00"/>
</svg>
