<svg width="240" height="136" viewBox="0 0 240 136" fill="none" xmlns="http://www.w3.org/2000/svg">
<path d="M82.664 9C29.8918 10.4501 13 39.4514 13 94.5538V114.24L17.6869 114.855M82.664 9H101.131V12.2968M82.664 9C23.1586 14.4719 17.6869 59.4924 17.6869 95.744V114.855M17.6869 114.855L25.2105 112.68M101.131 12.2968H199.323M101.131 12.2968C81.2655 12.2968 66.1588 15.6515 54.8623 22.1765M25.2105 112.68V95.744M25.2105 112.68L140.79 122.105M25.2105 95.744C25.2105 55.4021 32.7103 34.9717 54.8623 22.1765M25.2105 95.744L140.797 103.254M25.2105 95.744L29.1574 94.5538M217.171 11.1751H227V110.505L147.4 127M217.171 11.1751C153.275 14.8003 147.4 63.3774 147.4 105.429V127M217.171 11.1751C210.739 11.1751 204.8 11.5487 199.323 12.2968M147.4 127L140.79 126.455V122.105M140.79 122.105V105.429C140.79 104.7 140.793 103.975 140.797 103.254M199.323 12.2968C187.664 13.8895 178.098 17.1797 170.329 22.1765M54.8623 22.1765H170.329M54.8623 22.1765L56.3312 24.9507M170.329 22.1765C168.318 23.4702 167.536 24.1532 165.761 25.6757M56.3312 24.9507L165.761 25.6757M56.3312 24.9507C49.7475 28.3916 44.7465 33.143 40.9512 38.7263M165.761 25.6757C160.819 29.913 156.676 35.0985 153.275 41.2003M140.797 103.254C140.8 102.769 140.805 102.286 140.81 101.804M29.1574 94.5538C29.1574 76.4022 30.352 54.3195 40.9512 38.7263M29.1574 94.5538L63.6754 96.7953M140.81 101.804L63.6754 96.7953M140.81 101.804C140.846 98.5813 140.94 95.4392 141.094 92.3787M40.9512 38.7263L153.275 41.2003M40.9512 38.7263L42.3771 40.1764L101.131 41.3353M153.275 41.2003C153.064 41.5805 152.855 41.9642 152.648 42.3515M152.648 42.3515L101.131 41.3353M152.648 42.3515C145.804 55.2099 142.12 71.9805 141.094 92.3787M101.131 41.3353V90.2036M101.131 90.2036L63.6754 96.7953M101.131 90.2036L141.094 92.3787M87.9394 36.7813L106.312 37.0947C106.779 36.1172 107.007 35.1012 108.448 34.1459C108.448 34.1459 103.053 33.7834 90.0755 33.8325C89.3468 34.0906 87.8994 35.0417 87.9394 36.7813Z" stroke="#E5DCCA" stroke-width="2" stroke-linejoin="round"/>
<path d="M109.701 97.6527L109.701 80.2487C109.901 79.3979 110.513 77.4977 111.363 76.7029C112.425 75.7095 108.369 74.0319 110.031 70.4862C111.692 66.9404 115.395 64.9258 120.5 66.1251L124 68C125 66.1251 125.969 63.3669 132.122 63.9838M132.122 63.9838C139.813 64.755 135.756 70.315 134.693 71.3083C133.631 72.3016 136.766 70.863 137.126 75.5051C137.413 79.2188 136.834 91.3271 136.508 95.9464L122.115 98.6699M132.122 63.9838L108.382 62.7861C102.229 62.1691 99.9862 64.6006 99.4209 66.1251L96.92 63.9838C91.8155 62.7845 87.9518 65.7427 86.2901 69.2884C84.6284 72.8341 88.6846 74.5117 87.6225 75.5052C86.7729 76.2999 86.1607 78.2002 85.9608 79.0509L85.9608 95.9464" stroke="#806952" stroke-width="2" stroke-linecap="round" stroke-linejoin="round" stroke-dasharray="6 4"/>
</svg>
